<svg width="32" height="32" version="1.1" viewBox="0 0 32 32" xml:space="preserve" xmlns="http://www.w3.org/2000/svg"><g transform="translate(-173.72 -80.355)" fill="#fff"><g transform="matrix(.4715 0 0 .47153 156.15 49.009)"><g fill="#fff"><path d="m67.555 132.12a17.742 17.742 0 0 1-23.003-9.9762 17.742 17.742 0 0 1 9.9436-23.017 17.742 17.742 0 0 1 23.032 9.911 17.742 17.742 0 0 1-9.8784 23.046"/><path d="m92.372 93.453a13.52 13.52 0 0 1-17.529-7.6022 13.52 13.52 0 0 1 7.5773-17.54 13.52 13.52 0 0 1 17.551 7.5525 13.52 13.52 0 0 1-7.5277 17.561"/><path d="m53.408 88.95a9.0232 9.0232 0 0 1-11.699-5.0736 9.0232 9.0232 0 0 1 5.0571-11.706 9.0232 9.0232 0 0 1 11.713 5.0405 9.0232 9.0232 0 0 1-5.0239 11.72"/></g><path d="m61.5 116.21 26.313-35.484-37.89 0.15036z" fill="none" stroke="#fff" stroke-linejoin="round" stroke-width="5"/></g></g></svg>
