<?xml version="1.0" encoding="UTF-8"?>
<!-- Created with Inkscape (http://www.inkscape.org/) -->
<svg width="300" height="80" version="1.1" viewBox="0 0 300 80" xmlns="http://www.w3.org/2000/svg">
 <defs>
  <linearGradient id="linearGradient12" x1="52.679" x2="97.227" y1="84.499" y2="84.499" gradientTransform="matrix(.85055 0 0 .85055 5.1157 16.601)" gradientUnits="userSpaceOnUse">
   <stop stop-color="#fff" offset="0"/>
  </linearGradient>
 </defs>
 <g transform="translate(-39,-51)">
  <g fill="none" stroke="#fff" stroke-linejoin="round" stroke-width="9">
   <path d="m148.92 116.27a27.425 27.425 0 0 1-35.558-15.421 27.425 27.425 0 0 1 15.37-35.579 27.425 27.425 0 0 1 35.601 15.32 27.425 27.425 0 0 1-15.27 35.623" stroke-linecap="round"/>
   <path d="m140.64 97.488c4.4745-0.0765 8.6713 2.3078 11.01 5.1237 1.6035 1.9306 3.5363 6.2398 4.3604 8.852 1.5739 4.989 7.26 6.8116 13.33 6.8116"/>
   <path d="m181.39 81.818 0.0747 20.538c-0.0888 11.855 9.0231 15.82 14.468 15.85 6.02 0.0329 13.501-3.9343 13.874-16.55v-19.882"/>
   <path d="m245.94 116.57a15.492 15.492 0 0 1-20.142-8.619 15.492 15.492 0 0 1 8.6186-20.143 15.492 15.492 0 0 1 20.143 8.6181 15.492 15.492 0 0 1-8.6177 20.143"/>
   <path d="m255.91 81.021v41.893"/>
   <path d="m210.02 81.685v41.103"/>
   <path d="m274.19 103.06c0.0808-7.1421 3.8111-11.967 9.5915-15.259 4.6567-2.6515 9.7992-1.5896 13.197-0.57633"/>
   <path d="m274.19 80.967v41.893"/>
   <path d="m307.39 122.88v-61.015"/>
   <path d="m331.87 82.974c-0.01 2.078-1.0207 4.9866-4.714 8.735-3.8407 3.8979-12.429 9.8046-19.303 15.801"/>
   <path d="m330.75 122.35c0.0248-3.146-1.017-4.851-1.814-6.6129-2.0892-4.6182-7.7714-10.566-11.954-14.612"/>
  </g>
  <g fill="#fff">
   <path d="m67.555 122.12a17.742 17.742 0 0 1-23.003-9.9762 17.742 17.742 0 0 1 9.9436-23.017 17.742 17.742 0 0 1 23.032 9.911 17.742 17.742 0 0 1-9.8784 23.046"/>
   <path d="m92.372 83.453a13.52 13.52 0 0 1-17.529-7.6022 13.52 13.52 0 0 1 7.5773-17.54 13.52 13.52 0 0 1 17.551 7.5525 13.52 13.52 0 0 1-7.5277 17.561"/>
   <path d="m53.408 78.95a9.0232 9.0232 0 0 1-11.699-5.0736 9.0232 9.0232 0 0 1 5.0571-11.706 9.0232 9.0232 0 0 1 11.713 5.0405 9.0232 9.0232 0 0 1-5.0239 11.72"/>
  </g>
  <path d="m61.5 106.21 26.313-35.484-37.89 0.15036z" fill="none" stroke="url(#linearGradient12)" stroke-linejoin="round" stroke-width="4.5"/>
 </g>
</svg>
